<svg xmlns="http://www.w3.org/2000/svg" viewBox="0 0 48 48">
  <path d="M24 4C12.95 4 4 12.95 4 24c0 3.85 1.09 7.44 2.97 10.49L4 44l9.79-2.89C16.72 42.96 20.24 44 24 44c11.05 0 20-8.95 20-20S35.05 4 24 4z" fill="#338EFB"/>
  <path d="M24 13c-6.075 0-11 4.925-11 11s4.925 11 11 11c2.07 0 4.01-.575 5.665-1.572L24 24l5.665-9.428A10.944 10.944 0 0024 13z" fill="#fff" opacity="0.9"/>
  <path d="M29.665 14.572L24 24l5.665 9.428C31.66 31.43 33 27.87 33 24s-1.34-7.43-3.335-9.428z" fill="#fff" opacity="0.7"/>
</svg>
