<svg xmlns="http://www.w3.org/2000/svg" viewBox="0 0 48 48">
  <path fill="#25D366" d="M24.5,4C13.3,4,4.2,13.1,4.2,24.3c0,3.6,1,7.1,2.8,10.2L4,44l9.8-3.1c3,1.6,6.3,2.4,9.7,2.4c11.2,0,20.3-9.1,20.3-20.3S35.7,4,24.5,4z"/>
  <path fill="#fff" d="M34.6,29.3c-0.5-0.2-2.8-1.4-3.3-1.5c-0.4-0.2-0.8-0.2-1.1,0.2c-0.3,0.5-1.3,1.5-1.5,1.9c-0.3,0.3-0.5,0.4-1,0.1c-0.5-0.2-2-0.7-3.8-2.3c-1.4-1.2-2.3-2.8-2.6-3.2c-0.3-0.5,0-0.7,0.2-1c0.2-0.2,0.5-0.5,0.7-0.8c0.2-0.3,0.3-0.5,0.5-0.8c0.2-0.3,0.1-0.6,0-0.8c-0.1-0.2-1.1-2.7-1.5-3.7c-0.4-1-0.8-0.8-1.1-0.9c-0.3,0-0.6,0-0.9,0s-0.8,0.1-1.3,0.6c-0.4,0.5-1.7,1.6-1.7,4c0,2.3,1.7,4.6,2,4.9c0.2,0.3,3.4,5.2,8.2,7.3c1.1,0.5,2,0.8,2.7,1c1.1,0.4,2.1,0.3,2.9,0.2c0.9-0.1,2.8-1.1,3.2-2.2c0.4-1.1,0.4-2,0.3-2.2C35.4,29.7,35.1,29.6,34.6,29.3z"/>
</svg>
